<svg width="556" height="102" viewBox="0 0 556 102" fill="none" xmlns="http://www.w3.org/2000/svg">
<path d="M12.0733 23.1812V8.59788H43.5531V23.1812H12.0733ZM12.0733 50.7386V37.0605H42.5474V50.7386H12.0733ZM0.808964 8.59788H17.102V79H0.808964V8.59788ZM63.6138 64.5173C63.6138 65.7242 63.9155 66.7634 64.5189 67.6351C65.1224 68.4397 65.927 69.0767 66.9327 69.546C67.9385 69.9483 69.0448 70.1494 70.2517 70.1494C71.995 70.1494 73.6042 69.7807 75.0793 69.0431C76.5544 68.3056 77.7612 67.1993 78.6999 65.7242C79.6386 64.2491 80.108 62.4387 80.108 60.2932L81.7172 66.3276C81.7172 69.2778 80.9126 71.7922 79.3034 73.8707C77.6942 75.8822 75.6157 77.4243 73.0678 78.4971C70.5199 79.5029 67.7709 80.0057 64.8207 80.0057C61.8705 80.0057 59.1215 79.4693 56.5736 78.3966C54.0927 77.2567 52.0812 75.5805 50.5391 73.3678C49.064 71.1552 48.3265 68.4732 48.3265 65.3219C48.3265 60.8966 49.9021 57.41 53.0535 54.8621C56.2048 52.2472 60.6636 50.9397 66.4299 50.9397C69.2459 50.9397 71.7603 51.2079 73.9729 51.7443C76.2526 52.2807 78.1971 52.9512 79.8063 53.7558C81.4155 54.5604 82.6224 55.3985 83.4269 56.2702V63.0087C81.8178 61.8018 79.9404 60.8966 77.7948 60.2932C75.7162 59.6227 73.5036 59.2874 71.1569 59.2874C69.3465 59.2874 67.905 59.4886 66.8322 59.8909C65.7594 60.2932 64.9548 60.8966 64.4184 61.7012C63.882 62.4387 63.6138 63.3774 63.6138 64.5173ZM56.8753 46.9168L51.746 36.7587C54.3609 35.4848 57.5123 34.2779 61.2 33.138C64.8877 31.9982 68.9107 31.4283 73.2689 31.4283C77.359 31.4283 81.0132 32.0317 84.2315 33.2386C87.4499 34.3785 89.9978 36.0547 91.8752 38.2673C93.7526 40.48 94.6913 43.1955 94.6913 46.4139V79H80.108V49.8334C80.108 48.6936 79.9068 47.7213 79.5045 46.9168C79.1693 46.0451 78.6329 45.3076 77.8954 44.7041C77.1578 44.1007 76.2191 43.6648 75.0793 43.3966C74.0065 43.1284 72.7661 42.9943 71.358 42.9943C69.2795 42.9943 67.2345 43.229 65.223 43.6984C63.2785 44.1677 61.5688 44.7376 60.0937 45.4081C58.6186 46.0116 57.5458 46.5145 56.8753 46.9168ZM176.666 49.23V79H161.378V50.8392C161.378 48.0231 160.909 45.911 159.97 44.503C159.099 43.0279 157.624 42.2903 155.545 42.2903C154.204 42.2903 152.997 42.6256 151.924 43.2961C150.919 43.8995 150.114 44.8382 149.511 46.1122C148.974 47.3861 148.706 48.9618 148.706 50.8392V79H133.419V50.8392C133.419 48.0231 132.949 45.911 132.011 44.503C131.139 43.0279 129.664 42.2903 127.585 42.2903C126.244 42.2903 125.038 42.6256 123.965 43.2961C122.959 43.8995 122.154 44.8382 121.551 46.1122C121.015 47.3861 120.746 48.9618 120.746 50.8392V79H106.062V32.7358H120.746V39.5748C122.02 37.094 123.764 35.1495 125.976 33.7415C128.256 32.3335 130.971 31.6294 134.123 31.6294C137.743 31.6294 140.627 32.2999 142.772 33.6409C144.918 34.9149 146.46 36.7923 147.399 39.2731C149.075 36.8593 151.153 34.9819 153.634 33.6409C156.115 32.2999 158.931 31.6294 162.082 31.6294C165.703 31.6294 168.553 32.3335 170.631 33.7415C172.777 35.0825 174.319 37.0605 175.258 39.6754C176.196 42.2903 176.666 45.4752 176.666 49.23ZM187.66 15.3364C187.66 12.9226 188.531 10.9781 190.275 9.50305C192.018 7.96091 194.097 7.18984 196.51 7.18984C198.991 7.18984 201.07 7.96091 202.746 9.50305C204.489 10.9781 205.361 12.9226 205.361 15.3364C205.361 17.7502 204.489 19.7281 202.746 21.2703C201.07 22.8124 198.991 23.5835 196.51 23.5835C194.097 23.5835 192.018 22.8124 190.275 21.2703C188.531 19.7281 187.66 17.7502 187.66 15.3364ZM189.168 32.7358H203.852V79H189.168V32.7358ZM216.36 0.551928H231.648V79H216.36V0.551928ZM290.839 32.7358L260.667 101.126H245.379L256.644 75.2787L236.629 32.7358H253.325L268.31 69.8477L260.465 69.7472L275.25 32.7358H290.839ZM328.583 62.2041C330.93 64.1485 333.042 65.6906 334.92 66.8305C336.864 67.9033 338.574 68.6744 340.049 69.1437C341.524 69.546 342.798 69.7472 343.871 69.7472C345.413 69.7472 346.553 69.4119 347.29 68.7414C348.028 68.0709 348.397 67.1993 348.397 66.1265C348.397 65.1207 348.095 64.2826 347.491 63.6121C346.888 62.8746 345.849 62.1705 344.374 61.5C342.966 60.8295 341.021 60.1255 338.54 59.388C336.328 58.5834 334.216 57.6447 332.204 56.5719C330.26 55.4321 328.65 53.9234 327.377 52.046C326.103 50.1687 325.466 47.7549 325.466 44.8047C325.466 41.9886 326.203 39.6083 327.678 37.6639C329.22 35.7195 331.265 34.2444 333.813 33.2386C336.428 32.2329 339.412 31.73 342.764 31.73C345.446 31.73 347.927 32.0317 350.207 32.6352C352.554 33.2386 354.733 34.0432 356.744 35.049C358.823 36.0547 360.767 37.2281 362.578 38.5691L357.147 48.4254C355.202 46.615 352.99 45.1399 350.509 44.0001C348.028 42.7932 345.748 42.1897 343.67 42.1897C342.262 42.1897 341.189 42.4579 340.451 42.9943C339.781 43.5307 339.445 44.2348 339.445 45.1064C339.445 46.1122 339.848 46.9503 340.652 47.6208C341.524 48.2913 342.731 48.9282 344.273 49.5317C345.882 50.0681 347.827 50.7721 350.106 51.6437C352.52 52.5154 354.733 53.5211 356.744 54.661C358.823 55.8008 360.466 57.2424 361.672 58.9857C362.946 60.729 363.583 63.0422 363.583 65.9253C363.583 70.887 362.041 74.6418 358.957 77.1897C355.94 79.6705 351.682 80.9109 346.184 80.9109C342.831 80.9109 339.714 80.5086 336.831 79.704C334.014 78.9665 331.4 77.9607 328.986 76.6868C326.572 75.3458 324.326 73.8707 322.247 72.2615L328.583 62.2041ZM366.505 32.7358H397.482V45.3076H366.505V32.7358ZM374.652 16.6438H389.235V79H374.652V16.6438ZM451.326 32.7358L421.154 101.126H405.866L417.131 75.2787L397.116 32.7358H413.812L428.797 69.8477L420.952 69.7472L435.737 32.7358H451.326ZM456.403 0.551928H471.691V79H456.403V0.551928ZM507.046 80.0057C501.682 80.0057 497.022 79.0335 493.066 77.0891C489.177 75.0776 486.16 72.2615 484.014 68.6408C481.869 65.0202 480.796 60.7625 480.796 55.8679C480.796 50.9062 481.835 46.615 483.914 42.9943C485.992 39.3737 488.976 36.5911 492.865 34.6467C496.821 32.7022 501.481 31.73 506.845 31.73C512.209 31.73 516.734 32.6687 520.422 34.5461C524.11 36.3564 526.926 39.0049 528.87 42.4915C530.815 45.9781 531.787 50.2022 531.787 55.1639C531.787 55.9014 531.787 56.6389 531.787 57.3765C531.787 58.047 531.72 58.6169 531.586 59.0863H489.345V50.638H517.908L514.287 55.2644C514.622 54.7951 514.891 54.2252 515.092 53.5547C515.36 52.8171 515.494 52.2137 515.494 51.7443C515.494 49.7328 515.125 47.9895 514.388 46.5145C513.65 45.0394 512.611 43.8995 511.27 43.0949C509.929 42.2903 508.353 41.888 506.543 41.888C504.263 41.888 502.352 42.3909 500.81 43.3966C499.268 44.4024 498.095 45.9445 497.29 48.0231C496.552 50.0346 496.15 52.5824 496.083 55.6667C496.083 58.4828 496.485 60.8966 497.29 62.9081C498.095 64.9196 499.301 66.4617 500.911 67.5345C502.52 68.5403 504.498 69.0431 506.845 69.0431C509.527 69.0431 511.806 68.5403 513.684 67.5345C515.628 66.5288 517.17 65.0202 518.31 63.0087L531.888 66.3276C529.474 70.887 526.188 74.3065 522.031 76.5862C517.941 78.8659 512.946 80.0057 507.046 80.0057ZM536.96 72.1609C536.96 69.6131 537.866 67.4339 539.676 65.6236C541.486 63.8133 543.732 62.9081 546.414 62.9081C549.23 62.9081 551.51 63.8133 553.253 65.6236C554.997 67.4339 555.868 69.6131 555.868 72.1609C555.868 74.7088 554.997 76.8879 553.253 78.6983C551.51 80.5086 549.23 81.4138 546.414 81.4138C543.732 81.4138 541.486 80.5086 539.676 78.6983C537.866 76.8879 536.96 74.7088 536.96 72.1609Z" fill="white"/>
<path d="M12.0733 23.1812V8.59788H43.5531V23.1812H12.0733ZM12.0733 50.7386V37.0605H42.5474V50.7386H12.0733ZM0.808964 8.59788H17.102V79H0.808964V8.59788ZM63.6138 64.5173C63.6138 65.7242 63.9155 66.7634 64.5189 67.6351C65.1224 68.4397 65.927 69.0767 66.9327 69.546C67.9385 69.9483 69.0448 70.1494 70.2517 70.1494C71.995 70.1494 73.6042 69.7807 75.0793 69.0431C76.5544 68.3056 77.7612 67.1993 78.6999 65.7242C79.6386 64.2491 80.108 62.4387 80.108 60.2932L81.7172 66.3276C81.7172 69.2778 80.9126 71.7922 79.3034 73.8707C77.6942 75.8822 75.6157 77.4243 73.0678 78.4971C70.5199 79.5029 67.7709 80.0057 64.8207 80.0057C61.8705 80.0057 59.1215 79.4693 56.5736 78.3966C54.0927 77.2567 52.0812 75.5805 50.5391 73.3678C49.064 71.1552 48.3265 68.4732 48.3265 65.3219C48.3265 60.8966 49.9021 57.41 53.0535 54.8621C56.2048 52.2472 60.6636 50.9397 66.4299 50.9397C69.2459 50.9397 71.7603 51.2079 73.9729 51.7443C76.2526 52.2807 78.1971 52.9512 79.8063 53.7558C81.4155 54.5604 82.6224 55.3985 83.4269 56.2702V63.0087C81.8178 61.8018 79.9404 60.8966 77.7948 60.2932C75.7162 59.6227 73.5036 59.2874 71.1569 59.2874C69.3465 59.2874 67.905 59.4886 66.8322 59.8909C65.7594 60.2932 64.9548 60.8966 64.4184 61.7012C63.882 62.4387 63.6138 63.3774 63.6138 64.5173ZM56.8753 46.9168L51.746 36.7587C54.3609 35.4848 57.5123 34.2779 61.2 33.138C64.8877 31.9982 68.9107 31.4283 73.2689 31.4283C77.359 31.4283 81.0132 32.0317 84.2315 33.2386C87.4499 34.3785 89.9978 36.0547 91.8752 38.2673C93.7526 40.48 94.6913 43.1955 94.6913 46.4139V79H80.108V49.8334C80.108 48.6936 79.9068 47.7213 79.5045 46.9168C79.1693 46.0451 78.6329 45.3076 77.8954 44.7041C77.1578 44.1007 76.2191 43.6648 75.0793 43.3966C74.0065 43.1284 72.7661 42.9943 71.358 42.9943C69.2795 42.9943 67.2345 43.229 65.223 43.6984C63.2785 44.1677 61.5688 44.7376 60.0937 45.4081C58.6186 46.0116 57.5458 46.5145 56.8753 46.9168ZM176.666 49.23V79H161.378V50.8392C161.378 48.0231 160.909 45.911 159.97 44.503C159.099 43.0279 157.624 42.2903 155.545 42.2903C154.204 42.2903 152.997 42.6256 151.924 43.2961C150.919 43.8995 150.114 44.8382 149.511 46.1122C148.974 47.3861 148.706 48.9618 148.706 50.8392V79H133.419V50.8392C133.419 48.0231 132.949 45.911 132.011 44.503C131.139 43.0279 129.664 42.2903 127.585 42.2903C126.244 42.2903 125.038 42.6256 123.965 43.2961C122.959 43.8995 122.154 44.8382 121.551 46.1122C121.015 47.3861 120.746 48.9618 120.746 50.8392V79H106.062V32.7358H120.746V39.5748C122.02 37.094 123.764 35.1495 125.976 33.7415C128.256 32.3335 130.971 31.6294 134.123 31.6294C137.743 31.6294 140.627 32.2999 142.772 33.6409C144.918 34.9149 146.46 36.7923 147.399 39.2731C149.075 36.8593 151.153 34.9819 153.634 33.6409C156.115 32.2999 158.931 31.6294 162.082 31.6294C165.703 31.6294 168.553 32.3335 170.631 33.7415C172.777 35.0825 174.319 37.0605 175.258 39.6754C176.196 42.2903 176.666 45.4752 176.666 49.23ZM187.66 15.3364C187.66 12.9226 188.531 10.9781 190.275 9.50305C192.018 7.96091 194.097 7.18984 196.51 7.18984C198.991 7.18984 201.07 7.96091 202.746 9.50305C204.489 10.9781 205.361 12.9226 205.361 15.3364C205.361 17.7502 204.489 19.7281 202.746 21.2703C201.07 22.8124 198.991 23.5835 196.51 23.5835C194.097 23.5835 192.018 22.8124 190.275 21.2703C188.531 19.7281 187.66 17.7502 187.66 15.3364ZM189.168 32.7358H203.852V79H189.168V32.7358ZM216.36 0.551928H231.648V79H216.36V0.551928ZM290.839 32.7358L260.667 101.126H245.379L256.644 75.2787L236.629 32.7358H253.325L268.31 69.8477L260.465 69.7472L275.25 32.7358H290.839ZM328.583 62.2041C330.93 64.1485 333.042 65.6906 334.92 66.8305C336.864 67.9033 338.574 68.6744 340.049 69.1437C341.524 69.546 342.798 69.7472 343.871 69.7472C345.413 69.7472 346.553 69.4119 347.29 68.7414C348.028 68.0709 348.397 67.1993 348.397 66.1265C348.397 65.1207 348.095 64.2826 347.491 63.6121C346.888 62.8746 345.849 62.1705 344.374 61.5C342.966 60.8295 341.021 60.1255 338.54 59.388C336.328 58.5834 334.216 57.6447 332.204 56.5719C330.26 55.4321 328.65 53.9234 327.377 52.046C326.103 50.1687 325.466 47.7549 325.466 44.8047C325.466 41.9886 326.203 39.6083 327.678 37.6639C329.22 35.7195 331.265 34.2444 333.813 33.2386C336.428 32.2329 339.412 31.73 342.764 31.73C345.446 31.73 347.927 32.0317 350.207 32.6352C352.554 33.2386 354.733 34.0432 356.744 35.049C358.823 36.0547 360.767 37.2281 362.578 38.5691L357.147 48.4254C355.202 46.615 352.99 45.1399 350.509 44.0001C348.028 42.7932 345.748 42.1897 343.67 42.1897C342.262 42.1897 341.189 42.4579 340.451 42.9943C339.781 43.5307 339.445 44.2348 339.445 45.1064C339.445 46.1122 339.848 46.9503 340.652 47.6208C341.524 48.2913 342.731 48.9282 344.273 49.5317C345.882 50.0681 347.827 50.7721 350.106 51.6437C352.52 52.5154 354.733 53.5211 356.744 54.661C358.823 55.8008 360.466 57.2424 361.672 58.9857C362.946 60.729 363.583 63.0422 363.583 65.9253C363.583 70.887 362.041 74.6418 358.957 77.1897C355.94 79.6705 351.682 80.9109 346.184 80.9109C342.831 80.9109 339.714 80.5086 336.831 79.704C334.014 78.9665 331.4 77.9607 328.986 76.6868C326.572 75.3458 324.326 73.8707 322.247 72.2615L328.583 62.2041ZM366.505 32.7358H397.482V45.3076H366.505V32.7358ZM374.652 16.6438H389.235V79H374.652V16.6438ZM451.326 32.7358L421.154 101.126H405.866L417.131 75.2787L397.116 32.7358H413.812L428.797 69.8477L420.952 69.7472L435.737 32.7358H451.326ZM456.403 0.551928H471.691V79H456.403V0.551928ZM507.046 80.0057C501.682 80.0057 497.022 79.0335 493.066 77.0891C489.177 75.0776 486.16 72.2615 484.014 68.6408C481.869 65.0202 480.796 60.7625 480.796 55.8679C480.796 50.9062 481.835 46.615 483.914 42.9943C485.992 39.3737 488.976 36.5911 492.865 34.6467C496.821 32.7022 501.481 31.73 506.845 31.73C512.209 31.73 516.734 32.6687 520.422 34.5461C524.11 36.3564 526.926 39.0049 528.87 42.4915C530.815 45.9781 531.787 50.2022 531.787 55.1639C531.787 55.9014 531.787 56.6389 531.787 57.3765C531.787 58.047 531.72 58.6169 531.586 59.0863H489.345V50.638H517.908L514.287 55.2644C514.622 54.7951 514.891 54.2252 515.092 53.5547C515.36 52.8171 515.494 52.2137 515.494 51.7443C515.494 49.7328 515.125 47.9895 514.388 46.5145C513.65 45.0394 512.611 43.8995 511.27 43.0949C509.929 42.2903 508.353 41.888 506.543 41.888C504.263 41.888 502.352 42.3909 500.81 43.3966C499.268 44.4024 498.095 45.9445 497.29 48.0231C496.552 50.0346 496.15 52.5824 496.083 55.6667C496.083 58.4828 496.485 60.8966 497.29 62.9081C498.095 64.9196 499.301 66.4617 500.911 67.5345C502.52 68.5403 504.498 69.0431 506.845 69.0431C509.527 69.0431 511.806 68.5403 513.684 67.5345C515.628 66.5288 517.17 65.0202 518.31 63.0087L531.888 66.3276C529.474 70.887 526.188 74.3065 522.031 76.5862C517.941 78.8659 512.946 80.0057 507.046 80.0057ZM536.96 72.1609C536.96 69.6131 537.866 67.4339 539.676 65.6236C541.486 63.8133 543.732 62.9081 546.414 62.9081C549.23 62.9081 551.51 63.8133 553.253 65.6236C554.997 67.4339 555.868 69.6131 555.868 72.1609C555.868 74.7088 554.997 76.8879 553.253 78.6983C551.51 80.5086 549.23 81.4138 546.414 81.4138C543.732 81.4138 541.486 80.5086 539.676 78.6983C537.866 76.8879 536.96 74.7088 536.96 72.1609Z" fill="url(#paint0_linear_325_18)" fill-opacity="0.96"/>
<defs>
<linearGradient id="paint0_linear_325_18" x1="97.0211" y1="-80.8379" x2="424.18" y2="214.869" gradientUnits="userSpaceOnUse">
<stop stop-opacity="0"/>
<stop offset="0.5"/>
<stop offset="1" stop-opacity="0"/>
</linearGradient>
</defs>
</svg>
