<svg width="567" height="94" viewBox="0 0 567 94" fill="none" xmlns="http://www.w3.org/2000/svg">
<path d="M47.7633 0.597882H67.2747L42.634 42.3363V71H25.3351V42.4369L0.694408 0.597882H20.2059L33.9846 27.049L47.7633 0.597882ZM60.3901 47.8679C60.3901 42.9733 61.5299 38.7156 63.8096 35.0949C66.0893 31.4742 69.2406 28.6582 73.2636 26.6467C77.2866 24.6352 81.8124 23.6294 86.8411 23.6294C91.8699 23.6294 96.3622 24.6352 100.318 26.6467C104.341 28.6582 107.492 31.4742 109.772 35.0949C112.119 38.7156 113.292 42.9733 113.292 47.8679C113.292 52.6954 112.119 56.9196 109.772 60.5403C107.492 64.1609 104.341 66.977 100.318 68.9885C96.3622 71 91.8699 72.0057 86.8411 72.0057C81.8124 72.0057 77.2866 71 73.2636 68.9885C69.2406 66.977 66.0893 64.1609 63.8096 60.5403C61.5299 56.9196 60.3901 52.6954 60.3901 47.8679ZM75.9791 47.8679C75.9791 50.2817 76.482 52.3602 77.4877 54.1035C78.4935 55.7797 79.8009 57.0872 81.4101 58.0259C83.0193 58.9646 84.8297 59.4339 86.8411 59.4339C88.7856 59.4339 90.5624 58.9646 92.1716 58.0259C93.8478 57.0872 95.1553 55.7797 96.094 54.1035C97.0997 52.3602 97.6026 50.2817 97.6026 47.8679C97.6026 45.4541 97.0997 43.3756 96.094 41.6323C95.1553 39.889 93.8478 38.548 92.1716 37.6093C90.5624 36.6706 88.7856 36.2012 86.8411 36.2012C84.8297 36.2012 83.0193 36.6706 81.4101 37.6093C79.8009 38.548 78.4935 39.889 77.4877 41.6323C76.482 43.3756 75.9791 45.4541 75.9791 47.8679ZM138.32 52.8966C138.32 55.5786 138.822 57.6906 139.828 59.2328C140.834 60.7079 142.577 61.4454 145.058 61.4454C146.734 61.4454 148.142 61.1102 149.282 60.4397C150.489 59.7692 151.428 58.797 152.098 57.523C152.769 56.2491 153.104 54.7069 153.104 52.8966V24.7358H168.291V71H153.104V64.0604C151.696 66.5412 149.852 68.5192 147.572 69.9943C145.293 71.4023 142.443 72.1063 139.024 72.1063C133.257 72.1063 129.033 70.5642 126.351 67.4799C123.736 64.3286 122.429 60.0039 122.429 54.5058V24.7358H138.32V52.8966ZM195.264 24.7358V71H180.279V24.7358H195.264ZM208.641 40.4254C207.836 39.6208 206.964 38.9838 206.026 38.5145C205.154 38.0451 204.048 37.8104 202.707 37.8104C201.232 37.8104 199.924 38.2127 198.784 39.0173C197.645 39.8219 196.773 40.9953 196.169 42.5374C195.566 44.0796 195.264 45.957 195.264 48.1696L191.644 42.8392C191.644 39.1514 192.348 35.866 193.756 32.9829C195.231 30.0997 197.142 27.82 199.488 26.1438C201.835 24.4676 204.282 23.6294 206.83 23.6294C208.507 23.6294 210.116 23.9647 211.658 24.6352C213.2 25.3057 214.373 26.2444 215.178 27.4513L208.641 40.4254ZM264.554 47.8679C264.554 50.3487 265.09 52.4943 266.163 54.3046C267.236 56.0479 268.711 57.4224 270.588 58.4282C272.533 59.4339 274.611 59.9368 276.824 59.9368C278.701 59.9368 280.478 59.6686 282.154 59.1322C283.898 58.5288 285.473 57.7242 286.881 56.7184C288.356 55.7127 289.563 54.4723 290.502 52.9972V67.7816C288.893 69.0556 286.881 70.0948 284.468 70.8994C282.054 71.637 279.104 72.0057 275.617 72.0057C270.521 72.0057 265.928 71 261.838 68.9885C257.815 66.977 254.63 64.1609 252.284 60.5403C250.004 56.9196 248.864 52.6954 248.864 47.8679C248.864 42.9733 250.004 38.7491 252.284 35.1955C254.63 31.5748 257.815 28.7587 261.838 26.7472C265.928 24.7358 270.521 23.73 275.617 23.73C279.104 23.73 282.054 24.1323 284.468 24.9369C286.881 25.6744 288.893 26.6131 290.502 27.753V42.638C289.563 41.1629 288.323 39.9225 286.781 38.9168C285.306 37.911 283.697 37.1399 281.953 36.6035C280.21 36.0671 278.5 35.7989 276.824 35.7989C274.611 35.7989 272.533 36.3353 270.588 37.4081C268.711 38.4809 267.236 39.9225 266.163 41.7328C265.09 43.5432 264.554 45.5882 264.554 47.8679ZM316.464 24.7358V71H301.479V24.7358H316.464ZM329.841 40.4254C329.036 39.6208 328.165 38.9838 327.226 38.5145C326.354 38.0451 325.248 37.8104 323.907 37.8104C322.432 37.8104 321.124 38.2127 319.985 39.0173C318.845 39.8219 317.973 40.9953 317.37 42.5374C316.766 44.0796 316.464 45.957 316.464 48.1696L312.844 42.8392C312.844 39.1514 313.548 35.866 314.956 32.9829C316.431 30.0997 318.342 27.82 320.689 26.1438C323.035 24.4676 325.483 23.6294 328.03 23.6294C329.707 23.6294 331.316 23.9647 332.858 24.6352C334.4 25.3057 335.574 26.2444 336.378 27.4513L329.841 40.4254ZM393.244 24.7358L363.071 93.1264H347.784L359.048 67.2787L339.034 24.7358H355.729L370.715 61.8477L362.87 61.7472L377.655 24.7358H393.244ZM413.407 93.1264H398.22V24.7358H413.407V93.1264ZM451.223 47.8679C451.223 53.2318 450.15 57.7577 448.005 61.4454C445.926 65.1332 443.211 67.9157 439.858 69.7931C436.573 71.6705 433.019 72.6092 429.197 72.6092C425.174 72.6092 421.688 71.6034 418.738 69.592C415.854 67.5134 413.642 64.6303 412.1 60.9426C410.558 57.1878 409.786 52.8295 409.786 47.8679C409.786 42.8392 410.558 38.4809 412.1 34.7932C413.642 31.1055 415.854 28.2559 418.738 26.2444C421.688 24.1658 425.174 23.1266 429.197 23.1266C433.019 23.1266 436.573 24.0653 439.858 25.9426C443.211 27.82 445.926 30.6026 448.005 34.2903C450.15 37.911 451.223 42.4369 451.223 47.8679ZM435.232 47.8679C435.232 45.4541 434.729 43.4091 433.723 41.7328C432.717 40.0566 431.376 38.7827 429.7 37.911C428.024 37.0394 426.18 36.6035 424.169 36.6035C422.425 36.6035 420.716 37.0394 419.039 37.911C417.43 38.7156 416.089 39.956 415.016 41.6323C413.944 43.3085 413.407 45.387 413.407 47.8679C413.407 50.3487 413.944 52.4273 415.016 54.1035C416.089 55.7797 417.43 57.0537 419.039 57.9253C420.716 58.7299 422.425 59.1322 424.169 59.1322C426.18 59.1322 428.024 58.6964 429.7 57.8247C431.376 56.9531 432.717 55.6792 433.723 54.0029C434.729 52.3267 435.232 50.2817 435.232 47.8679ZM454.963 24.7358H485.94V37.3076H454.963V24.7358ZM463.11 8.64384H477.693V71H463.11V8.64384ZM489.698 47.8679C489.698 42.9733 490.837 38.7156 493.117 35.0949C495.397 31.4742 498.548 28.6582 502.571 26.6467C506.594 24.6352 511.12 23.6294 516.149 23.6294C521.177 23.6294 525.67 24.6352 529.626 26.6467C533.649 28.6582 536.8 31.4742 539.08 35.0949C541.426 38.7156 542.6 42.9733 542.6 47.8679C542.6 52.6954 541.426 56.9196 539.08 60.5403C536.8 64.1609 533.649 66.977 529.626 68.9885C525.67 71 521.177 72.0057 516.149 72.0057C511.12 72.0057 506.594 71 502.571 68.9885C498.548 66.977 495.397 64.1609 493.117 60.5403C490.837 56.9196 489.698 52.6954 489.698 47.8679ZM505.287 47.8679C505.287 50.2817 505.79 52.3602 506.795 54.1035C507.801 55.7797 509.108 57.0872 510.718 58.0259C512.327 58.9646 514.137 59.4339 516.149 59.4339C518.093 59.4339 519.87 58.9646 521.479 58.0259C523.155 57.0872 524.463 55.7797 525.402 54.1035C526.407 52.3602 526.91 50.2817 526.91 47.8679C526.91 45.4541 526.407 43.3756 525.402 41.6323C524.463 39.889 523.155 38.548 521.479 37.6093C519.87 36.6706 518.093 36.2012 516.149 36.2012C514.137 36.2012 512.327 36.6706 510.718 37.6093C509.108 38.548 507.801 39.889 506.795 41.6323C505.79 43.3756 505.287 45.4541 505.287 47.8679ZM547.532 64.1609C547.532 61.6131 548.437 59.4339 550.247 57.6236C552.058 55.8133 554.304 54.9081 556.986 54.9081C559.802 54.9081 562.082 55.8133 563.825 57.6236C565.568 59.4339 566.44 61.6131 566.44 64.1609C566.44 66.7088 565.568 68.8879 563.825 70.6983C562.082 72.5086 559.802 73.4138 556.986 73.4138C554.304 73.4138 552.058 72.5086 550.247 70.6983C548.437 68.8879 547.532 66.7088 547.532 64.1609Z" fill="white"/>
<path d="M47.7633 0.597882H67.2747L42.634 42.3363V71H25.3351V42.4369L0.694408 0.597882H20.2059L33.9846 27.049L47.7633 0.597882ZM60.3901 47.8679C60.3901 42.9733 61.5299 38.7156 63.8096 35.0949C66.0893 31.4742 69.2406 28.6582 73.2636 26.6467C77.2866 24.6352 81.8124 23.6294 86.8411 23.6294C91.8699 23.6294 96.3622 24.6352 100.318 26.6467C104.341 28.6582 107.492 31.4742 109.772 35.0949C112.119 38.7156 113.292 42.9733 113.292 47.8679C113.292 52.6954 112.119 56.9196 109.772 60.5403C107.492 64.1609 104.341 66.977 100.318 68.9885C96.3622 71 91.8699 72.0057 86.8411 72.0057C81.8124 72.0057 77.2866 71 73.2636 68.9885C69.2406 66.977 66.0893 64.1609 63.8096 60.5403C61.5299 56.9196 60.3901 52.6954 60.3901 47.8679ZM75.9791 47.8679C75.9791 50.2817 76.482 52.3602 77.4877 54.1035C78.4935 55.7797 79.8009 57.0872 81.4101 58.0259C83.0193 58.9646 84.8297 59.4339 86.8411 59.4339C88.7856 59.4339 90.5624 58.9646 92.1716 58.0259C93.8478 57.0872 95.1553 55.7797 96.094 54.1035C97.0997 52.3602 97.6026 50.2817 97.6026 47.8679C97.6026 45.4541 97.0997 43.3756 96.094 41.6323C95.1553 39.889 93.8478 38.548 92.1716 37.6093C90.5624 36.6706 88.7856 36.2012 86.8411 36.2012C84.8297 36.2012 83.0193 36.6706 81.4101 37.6093C79.8009 38.548 78.4935 39.889 77.4877 41.6323C76.482 43.3756 75.9791 45.4541 75.9791 47.8679ZM138.32 52.8966C138.32 55.5786 138.822 57.6906 139.828 59.2328C140.834 60.7079 142.577 61.4454 145.058 61.4454C146.734 61.4454 148.142 61.1102 149.282 60.4397C150.489 59.7692 151.428 58.797 152.098 57.523C152.769 56.2491 153.104 54.7069 153.104 52.8966V24.7358H168.291V71H153.104V64.0604C151.696 66.5412 149.852 68.5192 147.572 69.9943C145.293 71.4023 142.443 72.1063 139.024 72.1063C133.257 72.1063 129.033 70.5642 126.351 67.4799C123.736 64.3286 122.429 60.0039 122.429 54.5058V24.7358H138.32V52.8966ZM195.264 24.7358V71H180.279V24.7358H195.264ZM208.641 40.4254C207.836 39.6208 206.964 38.9838 206.026 38.5145C205.154 38.0451 204.048 37.8104 202.707 37.8104C201.232 37.8104 199.924 38.2127 198.784 39.0173C197.645 39.8219 196.773 40.9953 196.169 42.5374C195.566 44.0796 195.264 45.957 195.264 48.1696L191.644 42.8392C191.644 39.1514 192.348 35.866 193.756 32.9829C195.231 30.0997 197.142 27.82 199.488 26.1438C201.835 24.4676 204.282 23.6294 206.83 23.6294C208.507 23.6294 210.116 23.9647 211.658 24.6352C213.2 25.3057 214.373 26.2444 215.178 27.4513L208.641 40.4254ZM264.554 47.8679C264.554 50.3487 265.09 52.4943 266.163 54.3046C267.236 56.0479 268.711 57.4224 270.588 58.4282C272.533 59.4339 274.611 59.9368 276.824 59.9368C278.701 59.9368 280.478 59.6686 282.154 59.1322C283.898 58.5288 285.473 57.7242 286.881 56.7184C288.356 55.7127 289.563 54.4723 290.502 52.9972V67.7816C288.893 69.0556 286.881 70.0948 284.468 70.8994C282.054 71.637 279.104 72.0057 275.617 72.0057C270.521 72.0057 265.928 71 261.838 68.9885C257.815 66.977 254.63 64.1609 252.284 60.5403C250.004 56.9196 248.864 52.6954 248.864 47.8679C248.864 42.9733 250.004 38.7491 252.284 35.1955C254.63 31.5748 257.815 28.7587 261.838 26.7472C265.928 24.7358 270.521 23.73 275.617 23.73C279.104 23.73 282.054 24.1323 284.468 24.9369C286.881 25.6744 288.893 26.6131 290.502 27.753V42.638C289.563 41.1629 288.323 39.9225 286.781 38.9168C285.306 37.911 283.697 37.1399 281.953 36.6035C280.21 36.0671 278.5 35.7989 276.824 35.7989C274.611 35.7989 272.533 36.3353 270.588 37.4081C268.711 38.4809 267.236 39.9225 266.163 41.7328C265.09 43.5432 264.554 45.5882 264.554 47.8679ZM316.464 24.7358V71H301.479V24.7358H316.464ZM329.841 40.4254C329.036 39.6208 328.165 38.9838 327.226 38.5145C326.354 38.0451 325.248 37.8104 323.907 37.8104C322.432 37.8104 321.124 38.2127 319.985 39.0173C318.845 39.8219 317.973 40.9953 317.37 42.5374C316.766 44.0796 316.464 45.957 316.464 48.1696L312.844 42.8392C312.844 39.1514 313.548 35.866 314.956 32.9829C316.431 30.0997 318.342 27.82 320.689 26.1438C323.035 24.4676 325.483 23.6294 328.03 23.6294C329.707 23.6294 331.316 23.9647 332.858 24.6352C334.4 25.3057 335.574 26.2444 336.378 27.4513L329.841 40.4254ZM393.244 24.7358L363.071 93.1264H347.784L359.048 67.2787L339.034 24.7358H355.729L370.715 61.8477L362.87 61.7472L377.655 24.7358H393.244ZM413.407 93.1264H398.22V24.7358H413.407V93.1264ZM451.223 47.8679C451.223 53.2318 450.15 57.7577 448.005 61.4454C445.926 65.1332 443.211 67.9157 439.858 69.7931C436.573 71.6705 433.019 72.6092 429.197 72.6092C425.174 72.6092 421.688 71.6034 418.738 69.592C415.854 67.5134 413.642 64.6303 412.1 60.9426C410.558 57.1878 409.786 52.8295 409.786 47.8679C409.786 42.8392 410.558 38.4809 412.1 34.7932C413.642 31.1055 415.854 28.2559 418.738 26.2444C421.688 24.1658 425.174 23.1266 429.197 23.1266C433.019 23.1266 436.573 24.0653 439.858 25.9426C443.211 27.82 445.926 30.6026 448.005 34.2903C450.15 37.911 451.223 42.4369 451.223 47.8679ZM435.232 47.8679C435.232 45.4541 434.729 43.4091 433.723 41.7328C432.717 40.0566 431.376 38.7827 429.7 37.911C428.024 37.0394 426.18 36.6035 424.169 36.6035C422.425 36.6035 420.716 37.0394 419.039 37.911C417.43 38.7156 416.089 39.956 415.016 41.6323C413.944 43.3085 413.407 45.387 413.407 47.8679C413.407 50.3487 413.944 52.4273 415.016 54.1035C416.089 55.7797 417.43 57.0537 419.039 57.9253C420.716 58.7299 422.425 59.1322 424.169 59.1322C426.18 59.1322 428.024 58.6964 429.7 57.8247C431.376 56.9531 432.717 55.6792 433.723 54.0029C434.729 52.3267 435.232 50.2817 435.232 47.8679ZM454.963 24.7358H485.94V37.3076H454.963V24.7358ZM463.11 8.64384H477.693V71H463.11V8.64384ZM489.698 47.8679C489.698 42.9733 490.837 38.7156 493.117 35.0949C495.397 31.4742 498.548 28.6582 502.571 26.6467C506.594 24.6352 511.12 23.6294 516.149 23.6294C521.177 23.6294 525.67 24.6352 529.626 26.6467C533.649 28.6582 536.8 31.4742 539.08 35.0949C541.426 38.7156 542.6 42.9733 542.6 47.8679C542.6 52.6954 541.426 56.9196 539.08 60.5403C536.8 64.1609 533.649 66.977 529.626 68.9885C525.67 71 521.177 72.0057 516.149 72.0057C511.12 72.0057 506.594 71 502.571 68.9885C498.548 66.977 495.397 64.1609 493.117 60.5403C490.837 56.9196 489.698 52.6954 489.698 47.8679ZM505.287 47.8679C505.287 50.2817 505.79 52.3602 506.795 54.1035C507.801 55.7797 509.108 57.0872 510.718 58.0259C512.327 58.9646 514.137 59.4339 516.149 59.4339C518.093 59.4339 519.87 58.9646 521.479 58.0259C523.155 57.0872 524.463 55.7797 525.402 54.1035C526.407 52.3602 526.91 50.2817 526.91 47.8679C526.91 45.4541 526.407 43.3756 525.402 41.6323C524.463 39.889 523.155 38.548 521.479 37.6093C519.87 36.6706 518.093 36.2012 516.149 36.2012C514.137 36.2012 512.327 36.6706 510.718 37.6093C509.108 38.548 507.801 39.889 506.795 41.6323C505.79 43.3756 505.287 45.4541 505.287 47.8679ZM547.532 64.1609C547.532 61.6131 548.437 59.4339 550.247 57.6236C552.058 55.8133 554.304 54.9081 556.986 54.9081C559.802 54.9081 562.082 55.8133 563.825 57.6236C565.568 59.4339 566.44 61.6131 566.44 64.1609C566.44 66.7088 565.568 68.8879 563.825 70.6983C562.082 72.5086 559.802 73.4138 556.986 73.4138C554.304 73.4138 552.058 72.5086 550.247 70.6983C548.437 68.8879 547.532 66.7088 547.532 64.1609Z" fill="url(#paint0_linear_325_18)" fill-opacity="0.96"/>
<defs>
<linearGradient id="paint0_linear_325_18" x1="106.021" y1="18.1621" x2="433.18" y2="313.869" gradientUnits="userSpaceOnUse">
<stop stop-opacity="0"/>
<stop offset="0.5"/>
<stop offset="1" stop-opacity="0"/>
</linearGradient>
</defs>
</svg>
